# xmcd
# Track frame offsets:
# 182
# 13915
# 27402
# 41107
# 53002
# 65010
# 77150
# 88797
# 101245
# 113820
# 125152
# 136527
# 149585
# 161020
# 173075
# 185882
# 197695
# 211405
# 223052
# 234860
# 246422
# 259087
# 271462
# 284620
# 299000
# 311975
# 324395
# 335367
#
# Disc length: 4632 seconds
# Revision: 0
# Processed by: cddbd v1.4PL0 Copyright (c) Steve Scherf et al.
# Submitted via: bergue.cddb.CddbMailer 1
#
DISCID=c512161c
DTITLE=Bob Wills - The King Of Lone Star Swing - Roots of Rock 'n' Roll Vol
DYEAR=1900
DGENRE=
TTITLE0=Osage Stomp (1935)
TTITLE1=Cherokee Maiden (1941)
TTITLE2=Get With It (1935)
TTITLE3=Twin Guitar Special (1941)
TTITLE4=Roly Poly (1945)
TTITLE5=Take Me Back To Tulsa (1941)
TTITLE6=New San Antonio Rose (1940)
TTITLE7=Steel Guitar Rag (1936)
TTITLE8=Texas Playboy Rag (1945)
TTITLE9=Home In San Antone (1942)
TTITLE10=Bob Wills Special (1940)
TTITLE11=Right Or Wrong (1936)
TTITLE12=New Spanish Two Step (1945)
TTITLE13=Time Changes Everything (1940)
TTITLE14=Corrine Corrina (1940)
TTITLE15=Big Beaver (1940)
TTITLE16=Red Hot Gal Of Mine (1936)
TTITLE17=Whoa Baby (1938)
TTITLE18=That's What I Like About The South (1938)
TTITLE19=San Antonio Rose (1938)
TTITLE20=Oklahoma Rag (1935)
TTITLE21=Lone Star Rag (1940)
TTITLE22=Dusty Skies (1941)
TTITLE23=Bluin' The Blues (1936)
TTITLE24=No Matter How She Done It (1936)
TTITLE25=Black Rider (1938)
TTITLE26=You're Okay (1938)
TTITLE27=Please Don't Leave Me (1941)
EXTD=
EXTT0=
EXTT1=
EXTT2=
EXTT3=
EXTT4=
EXTT5=
EXTT6=
EXTT7=
EXTT8=
EXTT9=
EXTT10=
EXTT11=
EXTT12=
EXTT13=
EXTT14=
EXTT15=
EXTT16=
EXTT17=
EXTT18=
EXTT19=
EXTT20=
EXTT21=
EXTT22=
EXTT23=
EXTT24=
EXTT25=
EXTT26=
EXTT27=
PLAYORDER=
